HIERARCHY
ROOT Hips
{
  OFFSET 5.84602e-005 68.8428 3.50346
  CHANNELS 6 Xposition Yposition Zposition Zrotation Xrotation Yrotation
  JOINT Spine
  {
    OFFSET 0 8.597 -4.6522
    CHANNELS 3 Zrotation Xrotation Yrotation
    JOINT Spine1
    {
      OFFSET 0 7.8454 0.4098
      CHANNELS 3 Zrotation Xrotation Yrotation
      JOINT Spine2
      {
        OFFSET 0 9.7078 -2.1609
        CHANNELS 3 Zrotation Xrotation Yrotation
        JOINT Neck
        {
          OFFSET 0 21.8761 -0.4549
          CHANNELS 3 Zrotation Xrotation Yrotation
          JOINT Head
          {
            OFFSET 0 12.3537 3.3602
            CHANNELS 3 Zrotation Xrotation Yrotation
            End Site
            {
              OFFSET 0.0001 18.9506 0.5657
            }
          }
        }
        JOINT LeftShoulder
        {
          OFFSET 2.2086 21.1115 7.2329
          CHANNELS 3 Zrotation Xrotation Yrotation
          JOINT LeftArm
          {
            OFFSET 13.1193 3.0282 -4.8998
            CHANNELS 3 Zrotation Xrotation Yrotation
            JOINT LeftForeArm
            {
              OFFSET 27.4081 -0.0973053 -0.2375
              CHANNELS 3 Zrotation Xrotation Yrotation
              JOINT LeftHand
              {
                OFFSET 22.8641 0.0662994 -0.1369
                CHANNELS 3 Zrotation Xrotation Yrotation
                JOINT LeftHandIndex1
                {
                  OFFSET 8.8614 0.775009 2.4612
                  CHANNELS 3 Zrotation Xrotation Yrotation
                  JOINT LeftHandIndex2
                  {
                    OFFSET 3.3146 -0.808304 0.5841
                    CHANNELS 3 Zrotation Xrotation Yrotation
                    JOINT LeftHandIndex3
                    {
                      OFFSET 2.2628 -0.552002 0.3989
                      CHANNELS 3 Zrotation Xrotation Yrotation
                      End Site
                      {
                        OFFSET 1.6102 -0.4807 0.2612
                      }
                    }
                  }
                }
                JOINT LeftHandMiddle1
                {
                  OFFSET 8.9937 0.895004 0.2143
                  CHANNELS 3 Zrotation Xrotation Yrotation
                  JOINT LeftHandMiddle2
                  {
                    OFFSET 4.0984 0.0113983 -0.0242
                    CHANNELS 3 Zrotation Xrotation Yrotation
                    JOINT LeftHandMiddle3
                    {
                      OFFSET 2.2716 0.00689697 -0.0138001
                      CHANNELS 3 Zrotation Xrotation Yrotation
                      End Site
                      {
                        OFFSET 2.0404 -0.1441 0.0027
                      }
                    }
                  }
                }
                JOINT LeftHandRing1
                {
                  OFFSET 8.5234 0.597198 -2.0164
                  CHANNELS 3 Zrotation Xrotation Yrotation
                  JOINT LeftHandRing2
                  {
                    OFFSET 3.7188 -0.188293 -0.2328
                    CHANNELS 3 Zrotation Xrotation Yrotation
                    JOINT LeftHandRing3
                    {
                      OFFSET 2.1191 -0.106598 -0.1332
                      CHANNELS 3 Zrotation Xrotation Yrotation
                      End Site
                      {
                        OFFSET 1.8737 -0.2304 -0.0886
                      }
                    }
                  }
                }
                JOINT LeftHandPinky1
                {
                  OFFSET 7.9094 -0.601089 -3.4825
                  CHANNELS 3 Zrotation Xrotation Yrotation
                  JOINT LeftHandPinky2
                  {
                    OFFSET 2.2874 -0.477005 -0.6314
                    CHANNELS 3 Zrotation Xrotation Yrotation
                    JOINT LeftHandPinky3
                    {
                      OFFSET 1.6774 -0.349396 -0.4633
                      CHANNELS 3 Zrotation Xrotation Yrotation
                      End Site
                      {
                        OFFSET 1.4888 -0.4091 -0.3416
                      }
                    }
                  }
                }
                JOINT LeftHandThumb1
                {
                  OFFSET 1.833 -1.3875 1.3896
                  CHANNELS 3 Zrotation Xrotation Yrotation
                  JOINT LeftHandThumb2
                  {
                    OFFSET 3.4129 -1.121 2.5732
                    CHANNELS 3 Zrotation Xrotation Yrotation
                    JOINT LeftHandThumb3
                    {
                      OFFSET 2.2474 -0.804199 1.6192
                      CHANNELS 3 Zrotation Xrotation Yrotation
                      End Site
                      {
                        OFFSET 1.6527 -0.5689 1.1317
                      }
                    }
                  }
                }
              }
            }
          }
        }
        JOINT RightShoulder
        {
          OFFSET -2.2086 21.1115 7.2329
          CHANNELS 3 Zrotation Xrotation Yrotation
          JOINT RightArm
          {
            OFFSET -13.1216 3.0287 -4.9007
            CHANNELS 3 Zrotation Xrotation Yrotation
            JOINT RightForeArm
            {
              OFFSET -27.4081 -0.0973053 -0.2375
              CHANNELS 3 Zrotation Xrotation Yrotation
              JOINT RightHand
              {
                OFFSET -22.8641 0.0664063 -0.1369
                CHANNELS 3 Zrotation Xrotation Yrotation
                JOINT RightHandIndex1
                {
                  OFFSET -8.8614 0.774994 2.4612
                  CHANNELS 3 Zrotation Xrotation Yrotation
                  JOINT RightHandIndex2
                  {
                    OFFSET -3.3146 -0.808304 0.5841
                    CHANNELS 3 Zrotation Xrotation Yrotation
                    JOINT RightHandIndex3
                    {
                      OFFSET -2.2628 -0.552002 0.3989
                      CHANNELS 3 Zrotation Xrotation Yrotation
                      End Site
                      {
                        OFFSET -1.6102 -0.4807 0.2612
                      }
                    }
                  }
                }
                JOINT RightHandMiddle1
                {
                  OFFSET -8.9937 0.894989 0.2143
                  CHANNELS 3 Zrotation Xrotation Yrotation
                  JOINT RightHandMiddle2
                  {
                    OFFSET -4.0984 0.0113983 -0.0242
                    CHANNELS 3 Zrotation Xrotation Yrotation
                    JOINT RightHandMiddle3
                    {
                      OFFSET -2.2716 0.00691223 -0.0138001
                      CHANNELS 3 Zrotation Xrotation Yrotation
                      End Site
                      {
                        OFFSET -2.0404 -0.1441 0.0027
                      }
                    }
                  }
                }
                JOINT RightHandRing1
                {
                  OFFSET -8.5234 0.597198 -2.0164
                  CHANNELS 3 Zrotation Xrotation Yrotation
                  JOINT RightHandRing2
                  {
                    OFFSET -3.7188 -0.188309 -0.2328
                    CHANNELS 3 Zrotation Xrotation Yrotation
                    JOINT RightHandRing3
                    {
                      OFFSET -2.1191 -0.106598 -0.1332
                      CHANNELS 3 Zrotation Xrotation Yrotation
                      End Site
                      {
                        OFFSET -1.8737 -0.2304 -0.0886
                      }
                    }
                  }
                }
                JOINT RightHandPinky1
                {
                  OFFSET -7.9094 -0.601105 -3.4825
                  CHANNELS 3 Zrotation Xrotation Yrotation
                  JOINT RightHandPinky2
                  {
                    OFFSET -2.2874 -0.477005 -0.6314
                    CHANNELS 3 Zrotation Xrotation Yrotation
                    JOINT RightHandPinky3
                    {
                      OFFSET -1.6774 -0.349396 -0.4633
                      CHANNELS 3 Zrotation Xrotation Yrotation
                      End Site
                      {
                        OFFSET -1.4888 -0.4091 -0.3416
                      }
                    }
                  }
                }
                JOINT RightHandThumb1
                {
                  OFFSET -1.833 -1.38751 1.3896
                  CHANNELS 3 Zrotation Xrotation Yrotation
                  JOINT RightHandThumb2
                  {
                    OFFSET -3.41299 -1.12099 2.5732
                    CHANNELS 3 Zrotation Xrotation Yrotation
                    JOINT RightHandThumb3
                    {
                      OFFSET -2.24741 -0.804108 1.6192
                      CHANNELS 3 Zrotation Xrotation Yrotation
                      End Site
                      {
                        OFFSET -1.6527 -0.5689 1.1317
                      }
                    }
                  }
                }
              }
            }
          }
        }
      }
    }
  }
  JOINT RightUpLeg
  {
    OFFSET -9.1966 3.8861 -0.7581
    CHANNELS 3 Zrotation Xrotation Yrotation
    JOINT RightLeg
    {
      OFFSET -0.7359 -41.0265 0
      CHANNELS 3 Zrotation Xrotation Yrotation
      JOINT RightFoot
      {
        OFFSET 0 -40.2855 0
        CHANNELS 3 Zrotation Xrotation Yrotation
        JOINT RightToeBase
        {
          OFFSET 0 -5.6122 11.7359
          CHANNELS 3 Zrotation Xrotation Yrotation
          End Site
          {
            OFFSET 0 0 7.8731
          }
        }
      }
    }
  }
  JOINT LeftUpLeg
  {
    OFFSET 9.1965 3.8864 -0.7581
    CHANNELS 3 Zrotation Xrotation Yrotation
    JOINT LeftLeg
    {
      OFFSET 0.7359 -41.0268 0
      CHANNELS 3 Zrotation Xrotation Yrotation
      JOINT LeftFoot
      {
        OFFSET 0 -40.2855 0
        CHANNELS 3 Zrotation Xrotation Yrotation
        JOINT LeftToeBase
        {
          OFFSET 0 -5.6122 11.7359
          CHANNELS 3 Zrotation Xrotation Yrotation
          End Site
          {
            OFFSET 0 0 7.8731
          }
        }
      }
    }
  }
}
MOTION
Frames:	5
Frame Time:	0.0333333
0.999084 13.2442 2.25812 0 15.2273 -0 -0.33495 12.4189 -0.225725 -0.641912 24.8389 -0.38926 -0.641912 24.8389 -0.38926 -3.26628e-006 -6.50544e-008 1.34963e-006 3.37082e-007 -9.59682e-006 8.27937e-008 -10.3566 0.666073 -16.2897 -38.4052 -0.368995 -71.9767 1.44472 -17.105 -9.18847 21.98 6.72382 8.94708 2.33852e-006 1.64356e-007 3.81401e-007 1.65171e-005 1.4197e-006 2.36277e-006 -1.83415e-007 6.73814e-007 4.80404e-007 2.33852e-006 1.64356e-007 3.81401e-007 -0.0146087 -8.93273e-005 1.5933e-006 -1.83401e-007 6.73753e-007 4.8049e-007 2.33852e-006 1.64356e-007 3.81401e-007 -0.0187456 -0.00117475 6.1459e-005 -1.83393e-007 6.73736e-007 4.80516e-007 2.33852e-006 1.64356e-007 3.81401e-007 -0.0122166 -0.0032357 0.000677645 1.52497e-006 6.51174e-007 2.18776e-007 2.33852e-006 1.64356e-007 3.81401e-007 1.65171e-005 1.4197e-006 2.36277e-006 -1.83415e-007 6.73814e-007 4.80404e-007 10.3788 0.56049 16.4747 28.8321 2.32859 74.9929 -3.62619 -17.0453 5.05094 -22.5977 6.8443 -8.66863 5.88473e-007 -1.71155e-006 -2.72541e-006 1.59028e-015 -3.18055e-015 -3.18055e-015 -4.8972e-007 -1.36271e-006 8.55774e-007 5.88473e-007 -1.71155e-006 -2.72541e-006 0.014986 -9.32833e-005 -1.30641e-006 -4.89681e-007 -1.36259e-006 8.55952e-007 5.88473e-007 -1.71155e-006 -2.72541e-006 0.0189912 -0.00119028 -6.74952e-005 -4.89662e-007 -1.36257e-006 8.56004e-007 5.88473e-007 -1.71155e-006 -2.72541e-006 0.0122856 -0.00325203 -0.000675402 -4.89656e-007 -1.36263e-006 8.55932e-007 5.88473e-007 -1.71155e-006 -2.72541e-006 1.59028e-015 -3.18055e-015 -3.18055e-015 -4.8972e-007 -1.36271e-006 8.55774e-007 -50.0501 -51.1866 -42.2736 -151.132 40.0458 156.1 12.4029 41.62 -12.7817 -2.71328e-006 3.14916e-006 1.83066e-006 50.0384 -51.2246 42.3997 151.265 40.028 -156.165 -12.2962 41.3293 12.8607 -3.34286e-006 -2.67512e-006 3.31591e-007 
0.999107 13.3136 2.14415 0 15.7132 -0 -0.333372 12.3082 -0.227749 -0.638238 24.6175 -0.394336 -0.638238 24.6174 -0.394337 1.19504e-007 -2.34826e-005 2.42568e-006 -2.74383e-007 1.91979e-005 1.74989e-008 -10.2717 0.683992 -16.7079 -38.7706 -0.785978 -71.4889 1.46604 -17.2168 -9.05448 22.0987 6.5956 8.69922 1.9263e-006 8.97041e-007 -1.60485e-006 -3.81105e-007 -2.84154e-007 1.83038e-006 1.94727e-008 1.6348e-006 -8.70904e-007 1.9263e-006 8.97041e-007 -1.60485e-006 -0.0146455 -9.1449e-005 2.33646e-006 1.9531e-008 1.63491e-006 -8.70695e-007 1.9263e-006 8.97041e-007 -1.60485e-006 -0.0187404 -0.00117163 6.20799e-005 1.74395e-006 1.57245e-006 -1.12487e-006 1.9263e-006 8.97041e-007 -1.60485e-006 -0.0123187 -0.00326007 0.000678619 1.74446e-006 1.57221e-006 -1.12494e-006 1.9263e-006 8.97041e-007 -1.60485e-006 -3.81105e-007 -2.84154e-007 1.83038e-006 1.94727e-008 1.6348e-006 -8.70904e-007 10.2951 0.575036 16.8989 28.9654 2.34397 74.5713 -3.64583 -17.1552 4.94959 -22.7358 6.71812 -8.41236 4.89254e-007 1.36231e-006 -8.57271e-007 5.84932e-007 -1.71454e-006 -2.72463e-006 1.56344e-006 1.01009e-006 -4.43917e-006 4.89254e-007 1.36231e-006 -8.57271e-007 0.0150043 -8.73895e-005 -1.55354e-006 1.56349e-006 1.0095e-006 -4.4393e-006 4.89254e-007 1.36231e-006 -8.57271e-007 0.0190029 -0.00119449 -6.94994e-005 1.56346e-006 1.00935e-006 -4.43935e-006 4.89254e-007 1.36231e-006 -8.57271e-007 0.0122909 -0.00325372 -0.000685813 1.56335e-006 1.00961e-006 -4.43932e-006 4.89254e-007 1.36231e-006 -8.57271e-007 5.84932e-007 -1.71454e-006 -2.72463e-006 1.56344e-006 1.01009e-006 -4.43917e-006 -50.0566 -51.7121 -42.4221 -151.135 40.0391 156.102 12.8845 41.6553 -13.0289 -6.31422e-007 -4.69396e-007 -1.50634e-006 50.0342 -51.7569 42.5433 151.276 40.0223 -156.166 -12.7722 41.3555 13.1081 -5.34437e-006 -3.90836e-006 -2.42658e-006 
0.999129 13.3835 2.03008 0 16.199 -0 -0.331795 12.1973 -0.229763 -0.63459 24.396 -0.399376 -0.63459 24.396 -0.399376 -6.63035e-006 -1.25422e-007 1.80727e-006 6.65627e-008 1.72558e-009 -8.33971e-008 -10.1867 0.701276 -17.1261 -39.1326 -1.20631 -71.0037 1.48766 -17.3287 -8.92038 22.2168 6.46688 8.45169 1.78215e-007 -6.76819e-007 -4.79051e-007 -3.18055e-015 0 -1.59028e-015 1.78215e-007 -6.76819e-007 -4.79051e-007 1.78215e-007 -6.76819e-007 -4.79051e-007 -0.0145831 -8.76969e-005 -2.30747e-006 1.78203e-007 -6.76758e-007 -4.79138e-007 1.78215e-007 -6.76819e-007 -4.79051e-007 -0.0187637 -0.00117776 5.81505e-005 1.78194e-007 -6.76742e-007 -4.79164e-007 1.78215e-007 -6.76819e-007 -4.79051e-007 -0.012256 -0.00324552 0.000677424 1.78187e-007 -6.76771e-007 -4.79128e-007 1.78215e-007 -6.76819e-007 -4.79051e-007 -3.18055e-015 0 -1.59028e-015 1.78215e-007 -6.76819e-007 -4.79051e-007 10.2113 0.588944 17.323 29.0988 2.35831 74.1498 -3.66574 -17.2652 4.8481 -22.8733 6.59135 -8.15646 -4.88805e-007 -1.36193e-006 8.5874e-007 -4.88805e-007 -1.36193e-006 8.5874e-007 -4.88805e-007 -1.36193e-006 8.5874e-007 -4.88805e-007 -1.36193e-006 8.5874e-007 0.0149884 -9.36128e-005 3.24449e-007 -2.89633e-006 -2.68512e-006 6.451e-007 -4.88805e-007 -1.36193e-006 8.5874e-007 0.0189614 -0.00119393 -6.55569e-005 -4.88747e-007 -1.36179e-006 8.5897e-007 -4.88805e-007 -1.36193e-006 8.5874e-007 0.012258 -0.00324672 -0.000672407 -4.88741e-007 -1.36184e-006 8.58898e-007 -4.88805e-007 -1.36193e-006 8.5874e-007 -4.88805e-007 -1.36193e-006 8.5874e-007 -4.88805e-007 -1.36193e-006 8.5874e-007 -50.0575 -52.2414 -42.566 -151.144 40.033 156.103 13.3666 41.6893 -13.2765 -9.46666e-007 -7.03924e-007 -2.25979e-006 50.0287 -52.2908 42.6856 151.289 40.0171 -156.168 -13.2486 41.3803 13.3559 -6.35102e-007 4.69382e-007 -1.50474e-006 
0.99915 13.454 1.91593 0 16.6847 -0 -0.330222 12.0866 -0.231765 -0.630968 24.1746 -0.40438 -0.630969 24.1746 -0.40438 -3.4804e-006 7.78183e-005 8.92773e-007 3.38461e-008 -1.56956e-009 2.999e-007 -10.1016 0.717947 -17.5443 -39.4912 -1.62968 -70.5207 1.50951 -17.4404 -8.78618 22.3343 6.33765 8.20452 2.08338e-006 1.01101e-006 7.65363e-007 1.40812e-006 1.2144e-006 7.17946e-007 -1.7561e-007 6.78307e-007 4.78348e-007 2.08338e-006 1.01101e-006 7.65363e-007 -0.0145864 -8.85877e-005 -7.33895e-007 -1.75597e-007 6.78247e-007 4.78434e-007 2.08338e-006 1.01101e-006 7.65363e-007 -0.0187169 -0.00117042 5.71742e-005 -1.75589e-007 6.7823e-007 4.7846e-007 2.08338e-006 1.01101e-006 7.65363e-007 -0.0122452 -0.00323872 0.000676109 -1.75582e-007 6.7826e-007 4.78425e-007 2.08338e-006 1.01101e-006 7.65363e-007 1.40812e-006 1.2144e-006 7.17946e-007 -1.7561e-007 6.78307e-007 4.78348e-007 10.1274 0.602244 17.7472 29.2323 2.37171 73.7285 -3.68586 -17.375 4.74653 -23.0102 6.46397 -7.90094 -9.76737e-007 -2.72308e-006 1.72037e-006 -8.87154e-007 -5.80499e-006 -1.4252e-007 1.06632e-006 -3.58833e-007 -3.58326e-006 -9.76737e-007 -2.72308e-006 1.72037e-006 0.0150421 -9.6204e-005 -1.60351e-006 1.06641e-006 -3.59304e-007 -3.58322e-006 -9.76737e-007 -2.72308e-006 1.72037e-006 0.0190326 -0.00120124 -5.96963e-005 1.0664e-006 -3.59435e-007 -3.58321e-006 -9.76737e-007 -2.72308e-006 1.72037e-006 0.0122994 -0.00326715 -0.000684674 1.06629e-006 -3.59231e-007 -3.58326e-006 -9.76737e-007 -2.72308e-006 1.72037e-006 -8.87154e-007 -5.80499e-006 -1.4252e-007 1.06632e-006 -3.58833e-007 -3.58326e-006 -50.0615 -52.7704 -42.7122 -151.152 40.0269 156.105 13.8493 41.7217 -13.5247 -1.01439e-005 6.71375e-006 -2.45675e-006 50.0378 -52.8192 42.8392 151.294 40.0109 -156.169 -13.7254 41.4037 13.604 6.50732e-007 2.77514e-006 1.69087e-006 
0.999175 13.5251 1.8017 0 17.1704 -0 -0.328654 11.976 -0.233757 -0.627372 23.9532 -0.409348 -0.627373 23.9532 -0.409347 1.8791e-006 -4.37171e-005 1.00296e-006 3.77253e-008 -9.59959e-006 1.16826e-007 -10.0163 0.73396 -17.9625 -39.8463 -2.05614 -70.0403 1.53168 -17.5521 -8.65182 22.4512 6.20794 7.95768 -8.82781e-032 3.18055e-015 1.59028e-015 1.73002e-007 -6.79787e-007 -4.77626e-007 6.36111e-015 6.36111e-015 1.59028e-015 -8.82781e-032 3.18055e-015 1.59028e-015 -0.0146301 -8.92765e-005 2.60834e-007 8.82781e-032 -3.18055e-015 1.59028e-015 -8.82781e-032 3.18055e-015 1.59028e-015 -0.0187559 -0.00117651 6.12407e-005 1.03368e-014 6.36111e-015 -4.77083e-015 -8.82781e-032 3.18055e-015 1.59028e-015 -0.0122565 -0.00324398 0.000675062 3.97569e-015 -3.18055e-015 -1.59028e-015 -8.82781e-032 3.18055e-015 1.59028e-015 1.73002e-007 -6.79787e-007 -4.77626e-007 6.36111e-015 6.36111e-015 1.59028e-015 10.0434 0.614874 18.1713 29.3658 2.38409 73.3073 -3.70615 -17.4848 4.64488 -23.1464 6.33601 -7.6458 -4.87947e-007 -1.36115e-006 8.61607e-007 -6.36111e-015 9.54166e-015 -4.77083e-015 -4.87947e-007 -1.36115e-006 8.61607e-007 -4.87947e-007 -1.36115e-006 8.61607e-007 0.0150144 -9.26128e-005 -2.4385e-006 -4.87909e-007 -1.36104e-006 8.61786e-007 -4.87947e-007 -1.36115e-006 8.61607e-007 0.0189718 -0.00119141 -5.94654e-005 1.04951e-006 -1.95534e-007 1.75546e-006 -4.87947e-007 -1.36115e-006 8.61607e-007 0.0122934 -0.00325479 -0.000677756 -4.87884e-007 -1.36107e-006 8.61765e-007 -4.87947e-007 -1.36115e-006 8.61607e-007 -6.36111e-015 9.54166e-015 -4.77083e-015 -4.87947e-007 -1.36115e-006 8.61607e-007 -50.0713 -53.2979 -42.8629 -151.158 40.0204 156.107 14.3324 41.7526 -13.7734 -2.71466e-006 3.15156e-006 1.8299e-006 50.0448 -53.3495 42.9911 151.301 40.0052 -156.171 -14.2026 41.4256 13.8525 6.3475e-007 -4.69028e-007 1.50503e-006 
